<mxfile host="app.diagrams.net" modified="2024-11-11T07:01:31.381Z" agent="Mozilla/5.0 (Macintosh; Intel Mac OS X 10_15_7) AppleWebKit/537.36 (KHTML, like Gecko) Chrome/130.0.0.0 Safari/537.36" version="24.3.1" etag="wNB43-KghJhHw9ZErRPW" type="github">
  <diagram name="第 1 页" id="XjgJbRo0HnPxjvxtiAqy">
    <mxGraphModel>
      <root>
        <mxCell id="0" />
        <mxCell id="1" parent="0" />
      </root>
    </mxGraphModel>
  </diagram>
</mxfile>
